<svg width="800" height="600" viewBox="0 0 800 600" fill="none" xmlns="http://www.w3.org/2000/svg">
  <defs>
    <linearGradient id="g1" x1="0" y1="0" x2="1" y2="1">
      <stop offset="0%" stop-color="#2463EB"/>
      <stop offset="100%" stop-color="#6366F1"/>
    </linearGradient>
    <filter id="blur" x="-50%" y="-50%" width="200%" height="200%">
      <feGaussianBlur in="SourceGraphic" stdDeviation="24"/>
    </filter>
  </defs>

  <rect width="800" height="600" fill="url(#g1)" opacity="0.08"/>

  <circle cx="150" cy="120" r="120" fill="url(#g1)" opacity="0.3" filter="url(#blur)"/>
  <circle cx="680" cy="80" r="100" fill="#6366F1" opacity="0.25" filter="url(#blur)"/>
  <circle cx="650" cy="450" r="160" fill="#2463EB" opacity="0.18" filter="url(#blur)"/>

  <g transform="translate(140,200)">
    <rect x="0" y="0" rx="16" ry="16" width="340" height="220" fill="#fff" opacity="0.9" stroke="#E5E7EB"/>
    <rect x="20" y="24" width="200" height="18" rx="4" fill="#E5E7EB"/>
    <rect x="20" y="58" width="300" height="10" rx="4" fill="#E5E7EB"/>
    <rect x="20" y="78" width="260" height="10" rx="4" fill="#E5E7EB"/>
    <rect x="20" y="98" width="280" height="10" rx="4" fill="#E5E7EB"/>
    <rect x="20" y="140" width="120" height="36" rx="8" fill="url(#g1)"/>
  </g>

  <g transform="translate(520,220)">
    <circle cx="60" cy="60" r="60" fill="#fff" opacity="0.9" stroke="#E5E7EB"/>
    <path d="M60 30 L60 90 M30 60 L90 60" stroke="url(#g1)" stroke-width="12" stroke-linecap="round"/>
  </g>
</svg>

